<?xml version="1.0" encoding="utf-8"?>
<!-- Generator: Adobe Illustrator 16.0.0, SVG Export Plug-In . SVG Version: 6.00 Build 0)  -->
<!DOCTYPE svg PUBLIC "-//W3C//DTD SVG 1.1//EN" "http://www.w3.org/Graphics/SVG/1.1/DTD/svg11.dtd">
<svg version="1.1" id="Layer_1" xmlns="http://www.w3.org/2000/svg" xmlns:xlink="http://www.w3.org/1999/xlink" x="0px" y="0px"
	 width="71.722px" height="166.421px" viewBox="0 0 71.722 166.421" enable-background="new 0 0 71.722 166.421"
	 xml:space="preserve">
<polygon fill="#FFFFFF" points="109.937,120.863 81.219,92.145 72.11,92.921 102.924,123.74 71.722,154.938 80.748,155.795 
	108.71,127.837 122.155,127.813 92.984,156.975 101.973,157.877 135.526,124.323 135.562,124.292 102.018,90.748 92.909,91.524 
	122.209,120.825 "/>
<polygon fill="#FFFFFF" points="43.288,159.158 52.316,160.018 87.876,124.456 52.636,89.213 43.527,89.989 77.988,124.456 "/>
<polygon fill="#FFFFFF" points="38.21,120.863 9.492,92.145 0.384,92.921 31.203,123.74 0,154.938 9.026,155.795 36.983,127.837 
	50.429,127.813 21.263,156.975 30.246,157.877 63.805,124.323 63.835,124.292 30.291,90.748 21.183,91.524 50.483,120.825 "/>
<polygon fill="#FFFFFF" points="-28.438,159.158 -19.405,160.018 16.15,124.456 -19.086,89.213 -28.199,89.989 6.267,124.456 "/>
<polygon fill="#FFFFFF" points="-22.058,45.158 6.655,73.873 15.766,73.097 -15.048,42.278 16.152,11.08 7.126,10.223 
	-20.836,38.178 -34.281,38.209 -5.11,9.043 -14.098,8.141 -47.652,41.7 -47.681,41.73 -14.141,75.268 -5.027,74.494 -34.328,45.193 
	"/>
<polygon fill="#FFFFFF" points="35.558,6 0.005,41.562 35.238,76.81 44.356,76.033 9.886,41.562 44.586,6.862 "/>
<polygon fill="#FFFFFF" points="49.664,45.158 78.384,73.873 87.492,73.097 56.679,42.278 87.881,11.08 78.853,10.223 
	50.891,38.178 37.445,38.209 66.616,9.043 57.628,8.141 24.074,41.7 24.041,41.73 57.586,75.268 66.694,74.494 37.394,45.193 "/>
</svg>
